<svg width="23" height="19" viewBox="0 0 23 19" fill="none" xmlns="http://www.w3.org/2000/svg">
<path d="M23 6.13686C23 13.0656 12.343 18.6739 11.8892 18.9055C11.7695 18.9675 11.6358 19 11.5 19C11.3642 19 11.2305 18.9675 11.1108 18.9055C10.657 18.6739 0 13.0656 0 6.13686C0.00190236 4.50983 0.673223 2.94996 1.86668 1.79947C3.06014 0.648983 4.67827 0.00183387 6.36607 0C8.48638 0 10.3428 0.878957 11.5 2.36467C12.6572 0.878957 14.5136 0 16.6339 0C18.3217 0.00183387 19.9399 0.648983 21.1333 1.79947C22.3268 2.94996 22.9981 4.50983 23 6.13686Z" fill="black"/>
</svg>
