<svg width="19" height="12" viewBox="0 0 19 12" fill="none" xmlns="http://www.w3.org/2000/svg">
<path d="M14.7778 4.5V1C14.7778 0.734784 14.6666 0.48043 14.4686 0.292893C14.2707 0.105357 14.0022 0 13.7222 0H1.05556C0.775605 0 0.50712 0.105357 0.309165 0.292893C0.11121 0.48043 0 0.734784 0 1V11C0 11.2652 0.11121 11.5196 0.309165 11.7071C0.50712 11.8946 0.775605 12 1.05556 12H13.7222C14.0022 12 14.2707 11.8946 14.4686 11.7071C14.6666 11.5196 14.7778 11.2652 14.7778 11V7.5L19 11.5V0.5L14.7778 4.5Z" fill="black"/>
</svg>
